<?xml version="1.0" encoding="utf-8"?>
<!-- Generator: Adobe Illustrator 24.3.0, SVG Export Plug-In . SVG Version: 6.00 Build 0)  -->
<svg version="1.1" id="Layer_1" xmlns="http://www.w3.org/2000/svg" xmlns:xlink="http://www.w3.org/1999/xlink" x="0px" y="0px"
	 viewBox="0 0 559.6 559.6" style="height:1.4em" xml:space="preserve">
<style type="text/css">
	.st0{fill:#FFFFFF;}
</style>
<path class="st0" d="M279.8,559.6c-74.7,0-145-29.1-197.8-81.9C29.1,424.8,0,354.5,0,279.8s29.1-145,81.9-197.8
	C134.8,29.1,205,0,279.8,0s145,29.1,197.8,81.9c52.8,52.8,81.9,123.1,81.9,197.8s-29.1,145-81.9,197.8
	C424.8,530.5,354.5,559.6,279.8,559.6z M279.8,25C139.3,25,25,139.3,25,279.8s114.3,254.8,254.8,254.8s254.8-114.3,254.8-254.8
	S420.3,25,279.8,25z"/>
<path class="st0" d="M355.1,369c-3.3,0-6.5-1.3-9-3.8l-78.8-81.8V112.5c0-6.9,5.6-12.5,12.5-12.5s12.5,5.6,12.5,12.5v160.8
	l71.9,74.6c4.8,5,4.6,12.9-0.3,17.7C361.4,367.9,358.3,369,355.1,369z"/>
</svg>
