<svg id="Layer_1" data-name="Layer 1" xmlns="http://www.w3.org/2000/svg" viewBox="0 0 2676.46 1033.28"><defs><style>.cls-1{stroke:#000;stroke-miterlimit:10;stroke-width:2px;}</style></defs><path class="cls-1" d="M800.91,353v-1.65H742.23v18.56c-21.29-16.7-47-25.16-76.5-25.16-36.29,0-66.83,14.44-90.79,42.9C551.14,416,539.07,454.77,539.07,503c0,46.59,10.79,84.21,32.07,111.83a109.79,109.79,0,0,0,12.46,13.69l0,0c20.55,19.9,47.57,30,80.55,30h0c29.73,0,55.94-11.49,78-34.2v1.83c0,37.72-6.32,63.2-18.78,75.75s-30.48,18.9-53.6,18.9c-22.37,0-38.45-4.33-48.44-13.13l0,0c-7.1-7.18-10.61-17-10.61-29.53v-3.5H609V673H548.42v3.5c0,24.86,8.8,45.45,26.19,61.34a90.55,90.55,0,0,0,8.71,7.44c21.69,16.34,51.58,24.62,88.84,24.62,86.6,0,130.51-48.53,130.51-144.25V353ZM742.23,561.58c-22.68,31.62-48,47.65-75.4,47.65-15.57,0-28.41-4.68-38.87-14.26l-.11-.1a69.78,69.78,0,0,1-8.46-10.34c-12.1-17.93-18.23-44.79-18.23-79.83,0-37,6.49-65.17,19.31-83.64s29.16-27.22,50.32-27.22c24.91,0,47.64,9.4,67.68,28q1.9,1.8,3.76,3.74Z" transform="translate(-1.24 15.8)"/><path class="cls-1" d="M1415.43,373.71a57.82,57.82,0,0,0-7.18-6c-21.4-15.21-51.5-22.92-89.45-22.92-81.89,0-125.43,31.35-129.4,93.17l-.24,3.73H1191l-.11,1.65h58.76l.15-3.34c1.38-31.05,23.61-46.14,68-46.14,21.23,0,36.79,3,46.27,8.82a48.64,48.64,0,0,1,6.77,5,30.14,30.14,0,0,1,8.32,14.68c2,8.61,3.08,22.46,3.2,41.2h-21.78c-59.09,0-104.15,8.76-133.92,26-30.39,17.64-45.8,44.46-45.8,79.73,0,24.35,8.84,44.73,26.28,60.66q2.28,2.2,4.77,4.29c19.25,16.14,44.06,24.32,73.72,24.32h0c38.43,0,70.92-10.48,96.73-31.18v22.66h1.75v1.65h58.69V459.61C1442.82,419,1433.61,390.19,1415.43,373.71Zm-33,195c-8.73,12.22-20.73,22.07-35.71,29.31a109.59,109.59,0,0,1-47.94,11.18c-17.85,0-32.14-3.8-42.48-11.29a38.8,38.8,0,0,1-3-2.43c-6.9-6.92-10.26-15.91-10.26-27.31,0-19.22,8.62-33.26,26.35-42.9,18.18-9.89,46.06-14.9,82.86-14.9h30.21Z" transform="translate(-1.24 15.8)"/><polygon points="2442.91 1.65 2112.47 306.24 1881.76 306.24 1884.82 304.58 1880 304.58 2441.16 0 2434.3 6.32 2442.91 1.65"/><polygon points="1389.21 1033.28 1396.11 1026.92 1387.45 1031.62 1717.9 727.04 1948.6 727.04 1945.56 728.69 1950.36 728.69 1389.21 1033.28"/><path d="M290.79,292.5c-.86-.84-1.74-1.67-2.63-2.48-34.74-33.17-87.08-50-155.59-50H1.24v410H3v1.65H134.33c69.09,0,121.74-17.47,156.48-51.94s52.38-86.71,52.38-155.27C343.19,377.39,325.56,326.25,290.79,292.5ZM248.3,555.74c-20.46,26.19-59.77,39.47-116.82,39.47H63.33V296.52h69.9c50.78,0,87.48,10.13,109.35,30.15a70.32,70.32,0,0,1,5.89,6.47c20.56,25.64,31,62.54,31,109.7C279.45,491.29,269,529.28,248.3,555.74Z" transform="translate(-1.24 15.8)"/><polygon points="472.75 368.82 474.51 368.82 474.51 667.5 415.55 667.5 415.55 665.85 413.79 665.85 413.79 367.17 472.75 367.17 472.75 368.82"/><polygon points="474.51 257.49 474.51 320.57 415.55 320.57 415.55 318.91 413.79 318.91 413.79 255.83 472.75 255.83 472.75 257.49 474.51 257.49"/><polygon points="944.16 368.82 944.16 667.5 885.2 667.5 885.2 665.85 883.45 665.85 883.45 367.17 942.4 367.17 942.4 368.82 944.16 368.82"/><polygon points="944.16 257.49 944.16 320.57 885.2 320.57 885.2 318.91 883.45 318.91 883.45 255.83 942.4 255.83 942.4 257.49 944.16 257.49"/><path d="M1149.16,605.28v46.38l-2.86.53a199.8,199.8,0,0,1-36.44,3.37h-1.34c-21.92,0-38.37-4.08-48.84-12.13a51.47,51.47,0,0,1-5.43-4.64l0,0a51.1,51.1,0,0,1-16-28.38c-2.41-12-3.64-28.66-3.64-49.32V400.71h-34.25v-1.65h-1.76V351.37h36V278.79h58.69v1.66H1095v70.92h45.53V353h1.76v47.69H1095V565.46c0,23.62,3.6,32.44,6.62,35.68l.12.12c4.16,3.52,9.53,5.22,16.31,5.22h.49a144.56,144.56,0,0,0,24.76-2.14l4.1-.72v2Z" transform="translate(-1.24 15.8)"/><polygon points="1726.77 257.49 1726.77 320.57 1667.81 320.57 1667.81 318.91 1666.05 318.91 1666.05 255.83 1725.01 255.83 1725.01 257.49 1726.77 257.49"/><polygon points="1582.55 257.49 1584.31 257.49 1584.31 667.5 1525.35 667.5 1525.35 665.85 1523.59 665.85 1523.59 255.83 1582.55 255.83 1582.55 257.49"/><polygon points="1725.01 368.82 1726.77 368.82 1726.77 667.5 1667.81 667.5 1667.81 665.85 1666.05 665.85 1666.05 367.17 1725.01 367.17 1725.01 368.82"/><polygon points="2048.74 616.52 2048.74 667.5 1783.32 667.5 1783.32 665.85 1781.57 665.85 1781.57 617.03 1782.46 616.03 1957.5 419.81 1794.05 419.81 1794.05 418.16 1792.29 418.16 1792.29 367.17 2037.91 367.17 2037.91 368.82 2039.66 368.82 2039.66 417.64 2038.78 418.64 1863.74 614.86 2046.98 614.86 2046.98 616.52 2048.74 616.52"/><path d="M2369.2,502.5c0-49.25-12.85-88-38.19-115.1q-3.16-3.39-6.52-6.49l-.86-.81c-24.77-23.45-57.23-35.33-96.59-35.33-41.51,0-75.62,14-101.39,41.66s-38.74,66.07-38.74,114.42c0,48.73,13.46,87.34,40,114.73q2.61,2.7,5.34,5.22c26.17,25.07,60.56,37.77,102.3,37.77h0c33.93,0,63.13-8.44,86.81-25.1,23.9-16.82,38.13-41,42.28-72l.53-4h-2l.22-1.66h-61l-.14,3.35c-.69,16-7.67,28-21.33,36.65-13.94,8.85-29.81,13.33-47.2,13.33h0c-21.67,0-40.34-7.05-55.52-21-.29-.27-.57-.55-.85-.83-15.1-15-24-38.24-26.6-69.07H2369.2ZM2151.52,469c4.31-24.48,13.16-43.09,26.33-55.38,14.1-13.15,31.24-19.81,50.94-19.81s36.46,6.3,50.16,18.71l.12.11c13,12.64,21.75,31.59,26,56.37Z" transform="translate(-1.24 15.8)"/><path d="M2675.94,241.69V240h-58.68v129.9c-21.29-16.7-47-25.16-76.5-25.16-36.29,0-66.83,14.44-90.78,42.9C2426.17,416,2414.1,454.77,2414.1,503c0,46.59,10.79,84.21,32.07,111.83a109.86,109.86,0,0,0,12.47,13.69l0,0c20.54,19.9,47.56,30,80.54,30h0c29.73,0,55.93-11.49,78-34.19v25.67H2619v1.65h58.68v-410Zm-58.68,319.89c-22.67,31.62-48,47.65-75.4,47.65-15.63,0-28.5-4.72-39-14.36l-.07-.07a69.88,69.88,0,0,1-8.38-10.27c-12.09-17.93-18.23-44.79-18.23-79.83,0-37,6.5-65.17,19.31-83.64s29.17-27.22,50.32-27.22c24.68,0,47.21,9.21,67.11,27.42l.33.31c1.34,1.28,2.68,2.61,4,4Z" transform="translate(-1.24 15.8)"/></svg>