<?xml version="1.0" encoding="utf-8"?>
<!-- Generator: Adobe Illustrator 24.3.0, SVG Export Plug-In . SVG Version: 6.00 Build 0)  -->
<svg version="1.1" id="Layer_1" xmlns="http://www.w3.org/2000/svg" xmlns:xlink="http://www.w3.org/1999/xlink" x="0px" y="0px"
	 viewBox="0 0 481.25 173.39" style="enable-background:new 0 0 481.25 173.39;" xml:space="preserve">
<style type="text/css">
	.st0{fill:#FFFFFF;}
</style>
<g>
	<path class="st0" d="M-0.08,39.09c0.37,0.01,0.75,0.03,1.12,0.03c8.29,0,16.57-0.05,24.86,0.02c5.51,0.05,10.94,0.75,16.19,2.57
		c6.16,2.15,11.27,5.71,14.97,11.16c2.57,3.8,4.12,8.01,5.02,12.48c0.9,4.45,1.13,8.95,0.98,13.48c-0.14,4.6-0.74,9.12-2.12,13.52
		c-1.89,6.02-5.11,11.15-10.17,15.03c-3.64,2.79-7.76,4.58-12.18,5.7c-4.22,1.07-8.51,1.54-12.86,1.55c-8.13,0-16.26,0-24.39,0
		c-0.47,0-0.94-0.02-1.41-0.03C-0.08,89.43-0.08,64.26-0.08,39.09z M12.87,102.87c0.26,0.02,0.48,0.05,0.69,0.05
		c3.95,0,7.91,0.04,11.86-0.01c3.49-0.04,6.94-0.42,10.33-1.3c5.54-1.44,9.43-4.73,11.65-10.02c1.33-3.15,2.08-6.44,2.41-9.82
		c0.34-3.41,0.35-6.82,0.01-10.24c-0.35-3.55-1.13-6.99-2.67-10.22c-1.64-3.44-3.99-6.23-7.57-7.78c-1.12-0.48-2.27-0.91-3.44-1.26
		c-3.67-1.09-7.45-1.36-11.25-1.4c-3.73-0.04-7.47-0.01-11.2-0.01c-0.27,0-0.54,0.05-0.82,0.07
		C12.87,68.29,12.87,85.56,12.87,102.87z"/>
	<path class="st0" d="M482.49,114.6c-4.02,0.01-8.03,0.02-12.05,0.02c-0.09,0-0.18-0.04-0.35-0.09c0-1.17,0-2.34,0-3.72
		c-0.39,0.28-0.63,0.44-0.86,0.62c-2.72,2.18-5.76,3.7-9.23,4.17c-6.57,0.9-12.63-0.3-17.77-4.74c-3.04-2.62-5.04-5.97-6.44-9.69
		c-1.32-3.53-1.93-7.19-2.14-10.94c-0.3-5.27,0.1-10.46,1.76-15.51c1.51-4.6,4.03-8.54,7.73-11.7c4.17-3.56,9.04-5.17,14.48-5.11
		c3.52,0.04,6.91,0.73,10.1,2.28c0.75,0.37,1.47,0.79,2.32,1.25c0-7.47,0-14.83,0-22.29c0.41-0.02,0.74-0.05,1.07-0.05
		c3.61,0,7.22,0,10.83,0c0.19,0,0.37-0.02,0.56-0.03C482.49,64.26,482.49,89.43,482.49,114.6z M470.06,86.78
		c0-1.98,0.01-3.95-0.01-5.93c-0.01-0.66-0.06-1.32-0.15-1.96c-0.82-5.7-5.34-9.99-11.05-10.48c-3.5-0.3-6.41,0.85-8.64,3.62
		c-0.96,1.19-1.68,2.5-2.22,3.91c-0.97,2.54-1.4,5.2-1.58,7.9c-0.26,3.89-0.18,7.78,0.68,11.6c0.6,2.63,1.58,5.09,3.45,7.11
		c1.51,1.63,3.38,2.55,5.59,2.81c6.44,0.77,13.95-4.5,13.92-12.56C470.05,90.79,470.06,88.78,470.06,86.78z"/>
	<path class="st0" d="M133.24,61.52c0-0.85,0-1.53,0-2.19c0.74-0.21,11.33-0.25,12.39-0.05c0.01,0.29,0.04,0.59,0.04,0.9
		c0,16.47,0.02,32.95-0.01,49.42c-0.01,4.09-0.49,8.13-1.84,12.03c-2.53,7.3-7.57,11.85-15.11,13.49
		c-6.02,1.31-12.03,1.1-17.94-0.72c-1.99-0.61-3.84-1.53-5.54-2.73c-4.44-3.13-6.72-7.41-6.82-12.84c-0.01-0.59,0-1.18,0-1.84
		c4.26,0,8.45,0,12.76,0c0.02,0.31,0.03,0.64,0.05,0.97c0.06,0.81,0.06,1.63,0.2,2.43c0.3,1.77,1.36,2.99,2.91,3.82
		c1.06,0.57,2.22,0.87,3.4,1.05c2.6,0.39,5.2,0.41,7.75-0.28c0.9-0.25,1.78-0.62,2.6-1.05c1.93-1,3.18-2.59,3.87-4.65
		c0.73-2.19,1.07-4.44,1.18-6.74c0.02-0.44,0.02-0.87,0.02-1.31c0-0.04-0.07-0.09-0.16-0.18c-0.23,0.17-0.48,0.35-0.72,0.53
		c-4.35,3.44-9.3,4.76-14.8,4.26c-3.26-0.3-6.35-1.13-9.18-2.81c-3.92-2.32-6.6-5.74-8.5-9.8c-1.66-3.53-2.49-7.28-2.85-11.15
		c-0.29-3.13-0.31-6.27,0-9.39c0.52-5.35,1.94-10.41,5.07-14.87c3.41-4.86,7.88-8.25,13.8-9.39c5.8-1.12,11.36-0.34,16.55,2.61
		C132.59,61.15,132.83,61.28,133.24,61.52z M133.16,86.69c0.04,0,0.09,0,0.13,0c-0.06-2.45,0.02-4.9-0.2-7.33
		c-0.52-5.91-5.27-10.51-11.18-10.96c-3.54-0.27-6.45,0.95-8.66,3.77c-1.37,1.74-2.21,3.71-2.76,5.82
		c-0.66,2.53-0.93,5.11-1.01,7.72c-0.1,3.37,0.05,6.71,0.83,10c0.57,2.44,1.51,4.71,3.2,6.62c1.33,1.51,2.95,2.51,4.94,2.88
		c3.15,0.59,6.04-0.07,8.72-1.76c3.54-2.24,5.67-5.4,5.96-9.61C133.3,91.47,133.16,89.07,133.16,86.69z"/>
	<path class="st0" d="M225.9,77.16c-4.14,0-8.24,0-12.46,0c0.09-1.1,0.13-2.16,0.27-3.21c0.51-3.94,1.98-7.43,4.9-10.22
		c2.21-2.11,4.85-3.42,7.73-4.32c3.02-0.94,6.13-1.3,9.27-1.44c3.39-0.15,6.77,0.03,10.11,0.7c2,0.4,3.93,1.03,5.8,1.88
		c4.12,1.87,6.72,5.03,7.96,9.35c0.81,2.79,1.15,5.65,1.15,8.55c0.01,11.74,0,23.47,0,35.21c0,0.28,0,0.56,0,0.82
		c-0.75,0.2-11.36,0.23-12.41,0.04c0-1.06,0-2.15,0-3.35c-0.3,0.15-0.5,0.22-0.67,0.33c-3.98,2.58-8.37,3.91-13.08,4.29
		c-3.34,0.27-6.65,0.15-9.88-0.79c-3.94-1.14-7.26-3.24-9.72-6.57c-2.22-3-3.02-6.44-2.86-10.12c0.28-6.14,3.05-10.82,8.31-14
		c3.18-1.92,6.67-3.02,10.28-3.75c3.61-0.73,7.25-1.09,10.93-1.18c2.16-0.05,4.32-0.11,6.6-0.17c0-0.59,0.03-1.17-0.01-1.75
		c-0.08-1.12-0.2-2.25-0.3-3.37c-0.22-2.5-1.75-3.96-3.94-4.8c-0.95-0.37-1.99-0.57-3.01-0.69c-3.13-0.36-6.26-0.38-9.34,0.45
		c-0.3,0.08-0.6,0.18-0.89,0.29c-2.95,1.06-4.49,3.17-4.67,6.29C225.95,76.1,225.93,76.6,225.9,77.16z M241.38,89.34
		c-3.66,0.02-7.29,0.56-10.08,1.53c-0.74,0.25-1.46,0.56-2.16,0.92c-3.07,1.57-4.58,4.05-4.36,7.54c0.11,1.69,0.76,3.08,2.11,4.12
		c0.98,0.76,2.09,1.25,3.29,1.54c2.64,0.62,5.29,0.59,7.92,0c3.17-0.71,6.02-2.1,8.43-4.32c0.96-0.88,1.58-1.96,1.63-3.27
		c0.05-1.22,0.06-2.45,0-3.66c-0.12-2.27-1.91-4.15-4.17-4.38C243.14,89.27,242.25,89.34,241.38,89.34z"/>
	<path class="st0" d="M427.02,90.72c-13.09,0-26.11,0-39.28,0c0.13,0.82,0.24,1.55,0.37,2.27c0.29,1.64,0.74,3.25,1.48,4.74
		c2.43,4.92,6.41,7.47,11.9,7.67c2.79,0.1,5.4-0.52,7.85-1.88c2.63-1.46,3.96-3.65,3.99-6.65c0-0.19,0.01-0.38,0.03-0.56
		c0.01-0.09,0.03-0.18,0.05-0.27c0.66-0.2,11.35-0.27,12.88-0.07c-0.13,0.94-0.23,1.9-0.4,2.83c-1.4,7.61-6.05,12.47-13.09,15.23
		c-3.67,1.44-7.51,1.93-11.44,1.87c-3.54-0.06-7.01-0.56-10.31-1.88c-7.09-2.82-11.88-7.88-14.42-15.06
		c-1.28-3.61-1.77-7.36-1.85-11.18c-0.07-3.81,0.27-7.58,1.3-11.27c1.77-6.32,5.28-11.39,10.9-14.9c3.33-2.08,7-3.17,10.9-3.53
		c3.69-0.35,7.35-0.15,10.92,0.85c8.01,2.25,13.38,7.38,16.26,15.14c1.25,3.38,1.82,6.91,1.95,10.5
		C427.08,86.57,427.02,88.57,427.02,90.72z M413.72,80.17c-0.27-1.53-0.73-2.92-1.33-4.26c-2.94-6.59-9.23-8.64-15.08-7.05
		c-4.85,1.32-8.59,6.05-9.1,11.31C396.7,80.17,405.18,80.17,413.72,80.17z"/>
	<path class="st0" d="M369.28,104.13c0,3.37,0,6.72,0,10.13c-16.25,0-32.47,0-48.73,0c-0.02-0.32-0.04-0.6-0.04-0.87
		c0-2.64,0.01-5.27-0.01-7.91c0-0.5,0.14-0.88,0.48-1.26c9.95-11.13,19.9-22.27,29.84-33.41c0.24-0.27,0.45-0.56,0.78-0.98
		c-9.8,0-19.42,0-29.11,0c0-3.45,0-6.82,0-10.24c15.07,0,30.12,0,45.22,0c0.02,0.34,0.04,0.61,0.04,0.89c0,2.6-0.02,5.21,0.02,7.81
		c0.01,0.59-0.2,0.99-0.57,1.41c-7.01,7.83-14,15.68-21,23.52c-2.92,3.28-5.85,6.55-8.77,9.83c-0.23,0.26-0.44,0.52-0.65,0.77
		c0.03,0.07,0.04,0.1,0.06,0.12c0.02,0.02,0.04,0.05,0.06,0.06c0.06,0.01,0.12,0.02,0.19,0.02c0.16,0,0.31,0,0.47,0
		c10.45,0,20.91,0,31.36,0.01c0.06,0,0.12,0.01,0.19,0.02C369.12,104.06,369.15,104.07,369.28,104.13z"/>
	<path class="st0" d="M185.73,69.59c-2.22,0-4.28,0-6.4,0c0-3.47,0-6.88,0-10.42c2.07-0.08,4.16,0.01,6.36-0.05
		c0.02-0.41,0.04-0.77,0.05-1.13c0-3.58,0-7.15,0-10.73c0-0.37,0-0.73,0-1.14c4.17,0,8.22,0,12.37,0c0.14,2.15,0.04,4.3,0.06,6.45
		c0.02,2.13,0,4.26,0,6.53c2.82,0.11,5.6-0.02,8.42,0.07c0,3.48,0,6.89,0,10.41c-2.79,0-5.56,0-8.42,0c0,0.45,0,0.79,0,1.13
		c0,9.28-0.01,18.57,0.01,27.85c0,1.19,0.12,2.38,0.29,3.56c0.27,1.85,0.85,2.78,3.3,2.81c1.49,0.02,2.99-0.25,4.49-0.41
		c0.5-0.05,0.99-0.16,1.48-0.25c0.22,0.66,0.3,8.22,0.11,10.19c-0.42,0.1-0.86,0.22-1.32,0.3c-3.35,0.57-6.72,0.8-10.12,0.4
		c-2.77-0.33-5.31-1.17-7.32-3.26c-1.66-1.72-2.6-3.77-2.84-6.11c-0.25-2.33-0.47-4.68-0.48-7.03c-0.05-9.28-0.02-18.57-0.02-27.85
		C185.73,70.52,185.73,70.11,185.73,69.59z"/>
	<path class="st0" d="M354.96,123.13c-28.14,16.75-56.29,33.51-84.43,50.26c-0.05-0.05-0.1-0.09-0.15-0.14
		c0.2-0.25,0.38-0.5,0.59-0.74c7.13-8.02,14.26-16.04,21.39-24.06c7.34-8.25,14.68-16.5,22-24.77c0.5-0.57,1-0.79,1.76-0.79
		c12.62,0.02,25.24,0.02,37.86,0.02c0.31,0,0.61,0,0.92,0C354.92,122.99,354.94,123.06,354.96,123.13z"/>
	<path class="st0" d="M418.42,0c-2.02,2.27-4.03,4.55-6.05,6.82c-12.82,14.42-25.64,28.83-38.45,43.26c-0.5,0.56-1,0.8-1.77,0.8
		c-11.68-0.02-23.36-0.02-35.03-0.02c-0.37,0-0.74,0-1.2,0C336.5,50.22,416.25,0.97,418.42,0z"/>
	<path class="st0" d="M286.2,114.59c-4.14,0-8.2,0-12.34,0c0-25.13,0-50.23,0-75.4c4.11,0,8.2,0,12.34,0
		C286.2,64.31,286.2,89.4,286.2,114.59z"/>
	<path class="st0" d="M74.48,59.19c4.18,0,8.25,0,12.39,0c0,18.47,0,36.9,0,55.38c-4.13,0-8.23,0-12.39,0
		C74.48,96.13,74.48,77.7,74.48,59.19z"/>
	<path class="st0" d="M171.24,114.58c-4.14,0-8.21,0-12.28,0c-0.22-0.69-0.32-53.14-0.11-55.27c0.66-0.21,11.39-0.25,12.39-0.04
		C171.24,77.67,171.24,96.07,171.24,114.58z"/>
	<path class="st0" d="M299.47,59.2c4.12,0,8.22,0,12.36,0c0,18.46,0,36.87,0,55.35c-4.11,0-8.2,0-12.36,0
		C299.47,96.12,299.47,77.69,299.47,59.2z"/>
	<path class="st0" d="M74.54,39.17c4.08,0,8.17,0,12.33,0c0,4.38,0,8.72,0,13.13c-4.1,0-8.2,0-12.29,0
		C74.37,51.65,74.33,40.2,74.54,39.17z"/>
	<path class="st0" d="M158.85,52.3c0-4.42,0-8.74,0-13.12c4.14,0,8.23,0,12.38,0c0,4.37,0,8.71,0,13.12
		C167.11,52.3,163.02,52.3,158.85,52.3z"/>
	<path class="st0" d="M311.81,52.31c-4.12,0-8.21,0-12.35,0c0-4.38,0-8.72,0-13.12c4.12,0,8.21,0,12.35,0
		C311.81,43.57,311.81,47.91,311.81,52.31z"/>
</g>
</svg>
