<svg id="Layer_1" data-name="Layer 1" xmlns="http://www.w3.org/2000/svg" viewBox="0 0 95.62 106.52" class="maxsize"><path d="M95.46,47.67a3.25,3.25,0,0,0-.15-1.16A14.54,14.54,0,0,0,89,37.31c-4.3-2.94-9.2-3.51-14.29-2.86a28.24,28.24,0,0,0-17.32,9.39,9.13,9.13,0,0,1-1.36,1.61,5.38,5.38,0,0,1-1.68.74A22.1,22.1,0,0,0,46,51.62a12.68,12.68,0,0,0-3.1,5.09,13.35,13.35,0,0,0,3.69,14.83c4,3.59,8.65,4.55,13.89,3.66a17.23,17.23,0,0,0,5.73-2.08c.41-.23.64-.14.65.33v27.21a4.7,4.7,0,0,0,2.42,4.22,11.31,11.31,0,0,0,11.64.06s2.46-1.29,2.44-3.76V82.33c0-3.84-.1-8.81.16-12.64.09-1.38.49-1.46,1.81-2.29a16.22,16.22,0,0,0,2.21-1.67,25.22,25.22,0,0,0,6.67-9.18A16,16,0,0,0,95.46,47.67ZM52,71.48c-1.64.94-4.38-.77-6.14-3.81S44,61.4,45.6,60.46s4.37.76,6.13,3.8S53.61,70.53,52,71.48Z" transform="translate(0 0)"/><path d="M52.74,22.55a12.66,12.66,0,0,0-3.09-5.09A22.22,22.22,0,0,0,41.21,12a5.38,5.38,0,0,1-1.68-.74,10.45,10.45,0,0,1-1.36-1.61A26,26,0,0,0,31,3.75,26.56,26.56,0,0,0,20.89.24C15.79-.4,10.89.17,6.6,3.11a14.52,14.52,0,0,0-6.29,9.2,3.52,3.52,0,0,0-.14,1.16A16,16,0,0,0,1.4,22.35a25.45,25.45,0,0,0,6.65,9.18,15.72,15.72,0,0,0,2.22,1.67c1.31.83,1.72.91,1.81,2.29.25,3.83.1,8.8.15,12.64V67c-.06,2.46,2.48,3.76,2.48,3.76a11.31,11.31,0,0,0,11.63-.06,4.73,4.73,0,0,0,2.43-4.22V39.25c0-.47.23-.57.64-.33A17.44,17.44,0,0,0,35.16,41C40.4,41.9,45,40.94,49,37.35A13.35,13.35,0,0,0,52.74,22.55Zm-3,10.92c-1.76,3-4.51,4.75-6.14,3.81s-1.53-4.17.23-7.22,4.5-4.74,6.13-3.8,1.5,4.17-.25,7.21Z" transform="translate(0 0)"/></svg>