<?xml version="1.0" encoding="utf-8"?>
<!-- Generator: Adobe Illustrator 24.3.0, SVG Export Plug-In . SVG Version: 6.00 Build 0)  -->
<svg version="1.1" id="Layer_1" xmlns="http://www.w3.org/2000/svg" xmlns:xlink="http://www.w3.org/1999/xlink" x="0px" y="0px"
	 viewBox="0 0 433.8 252.1" style="enable-background:new 0 0 433.8 252.1;" xml:space="preserve">
<path d="M433.8,45.3v161.4c0,17-9.4,31.8-23.2,39.5L297.3,137L420.8,13.5C428.9,21.7,433.8,33,433.8,45.3z"/>
<polygon points="383.2,252.1 48.5,252.1 149.3,154.9 195.4,202.8 213.2,221.2 231.3,203.1 280.9,153.5 "/>
<path d="M134.2,139.3l-111,107C9.4,238.5,0,223.7,0,206.8V45.3C0,33,5,21.8,13,13.6L134.2,139.3z"/>
<path d="M402.4,2.2l-189,189l-47.6-49.4L31.2,2.2c1.5-0.5,3-0.9,4.5-1.2c3.1-0.7,6.3-1,9.5-1h343.2c3.2,0,6.3,0.3,9.3,1
	C399.4,1.3,400.9,1.7,402.4,2.2z"/>
</svg>
