<svg id="Layer_1" data-name="Layer 1" xmlns="http://www.w3.org/2000/svg" viewBox="0 0 92.65 92.95" class="maxsize"><path d="M80.77,55.12c3.28-8.84,3-17-.67-25-.4-.87-.55-1.89-1.71-2.26-6.07-1.93-9.43-7-13.2-11.58-9-10.89-28.64-11-37.62-.05-3.77,4.58-7,9.72-13.13,11.6-1.31.4-1.66,1.59-2.07,2.6C9.81,36.73,7.74,46.24,12,54.86c2.38-3.54,6.37-3.49,9.74-4.8,2.93-1.13,5.53,0,7.23,2.73a66,66,0,0,1,9.88,29.72c.44,5.92-9,12.11-14.08,9.24-1.95-1.09-3.08-1-4.7-.09-3.64,2.07-6.66,1-9.23-2a27.1,27.1,0,0,1-7-16.48C3.5,65,.52,57.35.08,49.26c-1.52-28.12,23.38-52,51.09-49,26.91,2.91,46.09,29,40.53,55.45-1.36,6.48-2,13-3,19.54a30.08,30.08,0,0,1-5.92,13.44,18.13,18.13,0,0,1-4,3.57C75,95,72.11,88.4,67.62,91.82c-3.73,2.84-7.65-1.57-11.1-3.32-3.18-1.6-2.77-5.43-2.26-8.54a94.84,94.84,0,0,1,7-22.57C65.49,47.51,71.88,48.25,80.77,55.12Z" transform="translate(-0.01 0)"/></svg>