<svg id="Layer_1" data-name="Layer 1" xmlns="http://www.w3.org/2000/svg" viewBox="0 0 133.65001 58.98" class="maxsize"><path d="M127.29,0H6.37A6.37,6.37,0,0,0,0,6.33V52.61a6.37,6.37,0,0,0,6.37,6.37H127.29a6.37,6.37,0,0,0,6.36-6.37V6.33A6.37,6.37,0,0,0,127.29,0ZM99.03,5.18h8v8h-8ZM20.97,23.38V15.43h8v7.95Zm.57,2.31v8H5.22v-8Zm1.82.2h8v8h-8Zm7.8-2.51V15.43h8v7.95Zm-4,12.5h8v8h-8Zm6.56-1.9v-8h8v8Zm8-10.44v-8h8v8ZM37.38,35.88h8v8h-8Zm6.93-1.72v-8h8v8Zm4,1.72h8v8h-8Zm6.18-1.72v-8h8v8ZM52.36,23.54v-8h8v8Zm10.09,0v-8h8v8ZM59.04,35.88h8v8h-8Zm6-1.72v-8h8v8Zm7.93-10.74v-8h8v8ZM69.36,35.88h8v8h-8Zm5.6-1.9v-8h8v8Zm7.9-10.56v-8h8v8ZM80.31,36.15h8v8h-8Zm5.5-2.17v-8h8v8ZM92.9,23.46v-8h8v8ZM91.43,36.15h8v8h-8Zm5.21-2.17v-8h8v8Zm4.52,2.17h26.66v8H101.16Zm5.6-2.44v-8h21.06v8Zm5-10.17h-8v-8h8ZM88.22,4.93h8v8h-8Zm-9.9,0h8v8h-8Zm-10.8,0h8v8h-8Zm-10.63.12h8v8h-8Zm-10.85.28h8v8h-8ZM35.66,5.11h8v8h-8ZM25.22,4.97h8v8h-8ZM15.04,5.1h8v7.95h-8ZM5.12,4.83h8.22v8.22H5.12Zm0,10.5H19.3v8.22H5.12Zm.1,20.55H25.36v8H5.22ZM18.8,54.2H5.22v-8H18.8Zm12.08.29H20.16v-8H30.88Zm62.67.11h-61v-8h61Zm10.17,0h-8v-8h8Zm9.66-.22h-8V46.33h8Zm14.52.22H116.11v-8H127.9Zm.07-31.18H114.42v-8h13.55Zm.34-10.36H108.88V4.83h19.43Z" transform="translate(0 0)"/></svg>