<svg id="Layer_1" data-name="Layer 1" xmlns="http://www.w3.org/2000/svg" viewBox="0 0 58.61636 91.5378" class="maxsize"><path d="M57.58,25.87C55.93,16.65,54.36,8.3,50.9,4.45,48,1.24,34.65.24,30.41,0H28C24.32.14,15,.67,11.35,2.69A11.9,11.9,0,0,0,5.73,8.81s-3.4,9.24-4.3,16.57S-1,48.2,1,60.45s4,14.71,5.63,17.2C8,79.78,13,85.91,17.46,88.23c5,2.63,10.73,4.59,18.3,2.29s10.69-6,14.9-10.43,6.26-15,7.13-20S59.23,35.09,57.58,25.87ZM32.5,24.17a3.19,3.19,0,0,1-3.18,3.2h-.01a3.20941,3.20941,0,0,1-3.2-3.2V12.34a3.2,3.2,0,1,1,6.39,0Z" transform="translate(-0.01837 0)"/></svg>