<svg id="Layer_1" data-name="Layer 1" xmlns="http://www.w3.org/2000/svg" viewBox="0 0 89.21084 95.27293" class="maxsize"><path d="M88.85,58.21c-.19-3-.36-5.91-.55-9s-.37-6.18-.56-9.28c-.21-3.4-.42-6.81-.62-10.21-.19-3.09-.37-6.19-.55-9.28q-.36-5.73-.7-11.46c0-.56,0-.58-.58-.64L77,7.5l-7.73-.78-8.5-.87-8.44-.82-9.12-1-7.62-.78-6.88-.72c-2-.21-4.11-.4-6.11-.62l-6.75-.73L10.52.66,5.19.08a4.18047,4.18047,0,0,0-1-.08A7,7,0,0,0,.9,1.24a1.52,1.52,0,0,1-.41.24c-.43.15-.49.45-.49.88.16,2.91.29,5.82.43,8.72.21,4.5.41,9,.63,13.5q.35,7.64.71,15.27.38,7.83.74,15.68c.17,3.67.35,7.34.52,11,.05,1.09.1,2.18.16,3.27,0,.14.15.38.25.38a20.46863,20.46863,0,0,0,2.71.21c1.16,0,2.32-.16,3.49-.25l5.65-.41,9-.65,5.65-.42,1.57-.1V85.08a.39.39,0,0,1-.32.38l-3.62.57-4.63.62c-1,.15-2.1.28-3.1.44a.37.37,0,0,0-.27.24,2.25971,2.25971,0,0,0,0,.52.38.38,0,0,0,.18.32A93.86076,93.86076,0,0,0,35,94.88a7.62,7.62,0,0,0,3.18.35c2.8-.43,5.61-.83,8.42-1.23l11.6-1.64c2-.27,3.87-.51,5.87-.8,1.48-.21,2.35-.41,3.82-.73L70,90.38a.38.38,0,0,0,.29-.34c.07-.84-.15-1.08-.7-1.33-4-1.8-13.1-4.49-13.1-4.49a41.32124,41.32124,0,0,0-4.7-1.19.86.86,0,0,0-.32,0l-5.77.75-1.83.25h0a.38.38,0,0,1-.36-.38V68.03a.37.37,0,0,1,.35-.37l4.81-.3,6.46-.33L67,66.32l5.33-.29,10.72-.77c1.43-.09,2.87-.18,4.29-.3.56-.05,1-.15,1.56-.24a.37.37,0,0,0,.31-.39C89.09,62.21,89,60.21,88.85,58.21ZM10.32,64.85,7.62,5.13l74.92,6.54L85.6,61.03Z" transform="translate(0 0.00342)"/></svg>