<svg id="Layer_1" data-name="Layer 1" xmlns="http://www.w3.org/2000/svg" viewBox="0 0 69.49 97.36" class="maxsize"><path d="M69.46,73.83c-.21-19.56-.29-39.09-.36-58.62C69.1,1.07,69.1,1.28,55,.46,47.61,0,29.44,0,25,0a11.19,11.19,0,0,0-2,.18C13,2,12.41,2.12,4.36,5.51,1.36,6.78,0,8,0,11.51.22,23.75.09,36,.09,48.24V85c0,6.5,0,7.06,6.23,7.83,11.48,1.41,23,2.33,34.45,4.25,6.65,1.12,10.64-1.15,15.48-5.67,6.15-5.73,6.38-5.32,10.54-10.19A9.93,9.93,0,0,0,69.46,73.83ZM16.54,26.93a7.4,7.4,0,0,1,7.63-6.54,9.25,9.25,0,0,1,9.27,9.23h0v.26c0,4.85-3.11,7.78-8.19,7.82a8.49,8.49,0,0,1-6.42-2.49,7.39,7.39,0,0,1-1.12-1.48c-.08-.12-.15-.25-.22-.38a7.2,7.2,0,0,1-.5-1.18c-.06-.16-.11-.33-.16-.49s-.11-.4-.16-.61a6.86,6.86,0,0,1-.12-.68,1.92,1.92,0,0,0-.06-.47c0-.41-.07-.81-.07-1.22v-.44A9.81,9.81,0,0,1,16.54,26.93ZM32.15,76.75c-.21.1-.43.2-.65.28a13.46,13.46,0,0,1-2.63.78,14.92,14.92,0,0,1-2.83.28h-.92c-8.87-.42-14.94-7.35-14.9-17.08a12.18,12.18,0,0,1,7.57-11.77,6.62,6.62,0,0,1,.62-.24,15.22,15.22,0,0,1,4-.87H24.8c9.12.4,15.35,7,15.38,16.57a13.28,13.28,0,0,1-6.33,11.17A11.89,11.89,0,0,1,32.15,76.75Z" transform="translate(0.01 0)"/><path d="M29.67,63c0,3.18-.93,4.81-3.22,5.17a5.93,5.93,0,0,1-1.26.08h-.71c-3.6-.39-4.71-3.07-4.77-6.22a3.91,3.91,0,0,1,3.45-4.28,5.86,5.86,0,0,1,1.45,0,8.21,8.21,0,0,1,1.21.18l.36.09.33.1a5,5,0,0,1,1.23.61,4.43,4.43,0,0,1,.54.43l.17.17A4.93,4.93,0,0,1,29.67,63Z" transform="translate(0.01 0)"/></svg>