<svg id="Layer_1" data-name="Layer 1" xmlns="http://www.w3.org/2000/svg" viewBox="0 0 378.47329 407.58855"><defs><style>.cls-1,.cls-2{fill:#1a1a1a;}.cls-1{stroke:#ff6f00;stroke-miterlimit:10;stroke-width:8px;}</style></defs><path class="cls-1" d="M936,410" transform="translate(-819.24176 -461)"/><path class="cls-2" d="M819.24176,591.07723v-6.522c.11751-.65022.27033-1.29634.34688-1.95135.56029-4.794,1.03821-9.59866,1.67479-14.38232.586-4.40373,1.21383-4.938,5.60959-5.721,6.95251-1.23856,13.88845-2.57606,20.85637-3.71958,2.99882-.49215,4.94219-1.87635,5.8884-4.82789a39.02642,39.02642,0,0,1,2.56415-6.18262c1.42659-2.72191.98573-4.96732-.86919-7.33052-4.54605-5.79177-8.96016-11.68774-13.38626-17.5727-1.69527-2.254-1.67764-3.503.06773-5.69449,4.47449-5.61814,8.99662-11.19833,13.49656-16.79622a4.08908,4.08908,0,0,1,4.86424-1.37114c.80151.264,1.5849.58709,2.36541.91016,6.525,2.70083,13.06263,5.37192,19.56282,8.1312a6.16044,6.16044,0,0,0,6.91769-.84168,33.75175,33.75175,0,0,1,4.3189-2.9797c2.768-1.63226,3.43746-3.95216,3.12539-7.06142-.71653-7.13923-1.2097-14.30363-1.64994-21.46664-.207-3.368.39765-4.11662,3.54444-5.201q9.92863-3.42143,19.892-6.74181c3.1603-1.05691,4.32185-.63291,6.27863,2.17744,4.3109,6.19131,8.65407,12.361,12.88562,18.60623a6.01324,6.01324,0,0,0,5.98011,2.89368,34.256,34.256,0,0,1,5.05074-.30716c2.47349.14479,3.87645-.96076,4.9669-3.08589q4.37966-8.53528,9.0335-16.92863c1.184-2.135,2.71231-4.07906,4.08371-6.11014h2.53632c.69362.20466,1.38.43919,2.082.60933,6.74508,1.63484,13.49962,3.23131,20.2364,4.89952,2.67492.66238,3.62971,1.81423,3.73541,4.39464.27888,6.80776.86942,13.62984.6371,20.42232-.16617,4.858,1.55073,7.59441,5.79765,9.83377,3.413,1.79966,6.03065,1.73907,9.21779-.15628,5.9098-3.51447,11.9747-6.77109,18.01448-10.06267,3.48449-1.899,4.19546-1.75919,6.93513,1.02827,4.90566,4.99124,9.77324,10.01992,14.67372,15.01626,2.66842,2.72062,2.78461,3.58849.80417,6.93-3.846,6.48928-7.66656,12.99381-11.5471,19.46236a4.9078,4.9078,0,0,0-.22343,5.29746c.8492,1.52963,1.7715,3.03164,2.46784,4.6302,1.11364,2.55661,3.05231,3.4466,5.72725,3.58651,7.8276.40941,15.64842.953,23.46921,1.48393a3.733,3.733,0,0,1,3.797,3.24779c.4,1.64136.71933,3.30219,1.0915,4.95053q1.97287,8.73819,3.95755,17.47367v2.53632a26.042,26.042,0,0,1-3.814,2.94573c-6.53969,3.38256-13.139,6.65093-19.74372,9.90582a4.70514,4.70514,0,0,0-2.88368,4.236c-.12986,2.2271-.16376,4.47027-.47308,6.67365a5.53041,5.53041,0,0,0,2.5459,5.72664c6.20217,4.50256,12.34346,9.0892,18.49293,13.664,2.73525,2.03485,3.06211,2.9877,1.92272,6.17543-2.37645,6.64852-4.81038,13.27662-7.24728,19.90333-.80782,2.19669-1.76451,2.855-4.06361,2.86412a26.01848,26.01848,0,0,1-2.88667-.18157q-10.34816-1.11648-20.69305-2.26322a5.2302,5.2302,0,0,0-5.1958,2.23837,68.6323,68.6323,0,0,1-4.2168,5.65854c-2.33066,2.61514-2.31062,5.25441-1.05055,8.3606,2.72176,6.7094,5.21989,13.50983,7.78277,20.28314,1.10241,2.91356.69722,4.22025-1.77061,6.08908q-7.93862,6.01175-15.87749,12.02315c-2.3977,1.82437-3.75444,1.88026-6.13779-.02495-5.75065-4.597-11.52742-9.16459-17.17218-13.88917a6.0229,6.0229,0,0,0-6.53414-1.13826c-2.87983,1.08605-5.724,2.27407-8.63473,3.26849a6.05166,6.05166,0,0,0-4.26607,5.07732c-1.432,7.28311-3.00658,14.53844-4.55227,21.79888-.73535,3.45414-1.40808,4.09267-4.87269,4.53043-3.945.4985-7.90023.91661-11.851,1.36963h-10.1453a21.79,21.79,0,0,1-2.26084-3.81811c-2.44035-7.0099-4.75213-14.06474-7.08519-21.11171a5.54105,5.54105,0,0,0-4.525-4.1405c-3.4392-.64231-6.86364-1.39877-10.25-2.27755a5.97191,5.97191,0,0,0-6.36351,1.843c-5.04809,5.27354-10.17561,10.47139-15.2953,15.67595-2.66656,2.71077-3.786,2.80648-7.13943.8953q-7.62855-4.34762-15.288-8.641c-3.67776-2.05612-3.98561-2.8638-2.90044-6.98265,1.87591-7.12021,3.65765-14.26517,5.51044-21.39155a4.99766,4.99766,0,0,0-1.18961-5.03008c-2.73944-2.88886-5.50465-5.75326-8.2472-8.63918a5.22908,5.22908,0,0,0-5.423-1.53478c-7.46481,1.73972-14.95007,3.39319-22.43825,5.03052-2.86714.62689-3.89939.08753-5.24474-2.53511q-4.46226-8.69876-8.89376-17.4133c-1.36717-2.69268-1.20671-3.63089.88782-5.77712.46331-.47473.95387-.92323,1.43856-1.37665,5.2409-4.90281,10.46081-9.82841,15.73859-14.69118a5.32513,5.32513,0,0,0,1.73912-5.22168q-.99985-5.52282-2.03955-11.03841a4.11648,4.11648,0,0,0-2.76344-3.31078Q831.99983,595.724,819.24176,591.07723Zm130.70222-76.085a76.27739,76.27739,0,1,0,76.109,76.26761A76.07511,76.07511,0,0,0,949.944,514.99223Z" transform="translate(-819.24176 -461)"/><path class="cls-2" d="M951.10914,744.59446l2.0387-3.61523c.26839-.3237.55507-.63408.80226-.97324,1.80912-2.48223,3.57594-4.99615,5.42413-7.44882,1.7014-2.25787,2.2164-2.35776,4.89783-1.41777,4.241,1.48674,8.50383,2.91345,12.72371,4.45768a4.22182,4.22182,0,0,0,4.77318-.83552,24.83583,24.83583,0,0,1,3.354-2.62559,3.89565,3.89565,0,0,0,1.80964-4.33512c-.7095-4.63152-1.31328-9.27956-1.92716-13.92524-.23513-1.77937.16506-2.46618,1.81759-3.13537,4.23645-1.71554,8.48745-3.39516,12.73168-5.09152a2.60221,2.60221,0,0,1,3.12493.76047c.36177.39689.695.82086,1.02668,1.24392,2.77264,3.53675,5.56161,7.061,8.30224,10.6224a3.92036,3.92036,0,0,0,4.09768,1.69584,21.47881,21.47881,0,0,1,3.32546-.30164c2.04458-.03954,3.14085-1.11623,3.93979-2.93729,1.83447-4.18137,3.80061-8.30687,5.79567-12.41505.93806-1.93162,1.50724-2.1576,3.59052-1.775q6.5731,1.207,13.13387,2.481c2.08218.402,2.5935,1.00013,2.79969,3.16962.45426,4.77949.93316,9.55707,1.32658,14.34164a3.8267,3.8267,0,0,0,2.41033,3.47334,21.80008,21.80008,0,0,1,2.89572,1.40855,3.046,3.046,0,0,0,3.71784-.158q5.09577-3.3622,10.29914-6.56c1.3237-.81334,2.77855-1.41324,4.17363-2.11042l1.40593.79283c.32051.33026.62767.67483.9636.98857,3.22787,3.01467,6.473,6.011,9.68582,9.04158,1.27569,1.20332,1.44489,2.14027.69687,3.60367-1.97345,3.86083-3.77862,7.827-6.03066,11.51957-1.61069,2.64094-1.51435,4.69444.13978,7.2633a5.31555,5.31555,0,0,0,5.15842,2.79476c4.37448-.10078,8.75434-.01015,13.1312.05325,2.5251.03659,2.87552.33631,3.52283,2.73784,1.15907,4.30018,2.28533,8.60921,3.43993,12.91061.62871,2.3422.42183,2.85959-1.72049,4.09278-4.16039,2.39489-8.31143,4.80618-12.48448,7.17878a3.12323,3.12323,0,0,0-1.77978,2.86663c-.00743,1.11335.03431,2.23423-.0794,3.338a3.71028,3.71028,0,0,0,2.0536,3.77834c4.211,2.67377,8.37627,5.4198,12.54549,8.15881a2.37559,2.37559,0,0,1,1.08949,2.98719c-.29136,1.03486-.63349,2.05532-.94245,3.08536q-1.63788,5.46041-3.26837,10.923l-.79283,1.40593a16.57372,16.57372,0,0,1-3.035.44064c-4.68241-.16924-9.36215-.4204-14.04071-.68075a2.99426,2.99426,0,0,0-2.92261,1.44668c-.76815,1.19391-1.48813,2.42675-2.34835,3.55142a3.51944,3.51944,0,0,0-.37886,3.97019c2.03051,4.43458,4.001,8.89673,5.97969,13.35487.88012,1.983.76345,2.61332-.86458,4.02417q-5.09336,4.41378-10.23887,8.7673a2.29639,2.29639,0,0,1-3.14782.31738,16.55922,16.55922,0,0,1-1.54337-1.003q-5.38714-3.85362-10.763-7.723a3.32841,3.32841,0,0,0-3.57981-.38339,43.68028,43.68028,0,0,1-4.10624,1.81849c-2.10939.72107-2.92329,2.19032-3.19578,4.306-.58858,4.56992-1.32957,9.1204-2.0262,13.67608-.29967,1.95964-.93273,2.5573-2.88486,2.8218-4.18648.56725-8.37429,1.12471-12.55946,1.70147-1.89937.26178-2.66889-.13134-3.39448-1.93244-1.75069-4.3458-3.52507-8.68343-5.17718-13.06683a3.83287,3.83287,0,0,0-3.26617-2.67347c-1.93583-.29819-3.88378-.52873-5.80806-.88736a3.85115,3.85115,0,0,0-3.95187,1.48091c-3.07042,3.5895-6.21117,7.119-9.33751,10.66047-1.48735,1.68481-2.05985,1.82847-4.11718.98813-2.34262-.95686-4.66574-1.96145-6.99733-2.9453l-5.6237-3.17132a13.8671,13.8671,0,0,1-.05971-2.82316c.8385-4.64853,1.76231-9.28177,2.67188-13.91731a3.52619,3.52619,0,0,0-1.214-3.70962q-2.55845-2.14666-4.96978-4.46653a3.80038,3.80038,0,0,0-4.10349-.96758c-4.4467,1.34522-8.91376,2.62365-13.37857,3.90826-2.32548.66908-2.97591.37222-4.23736-1.73544q-2.8696-4.79456-5.77327-9.5687c-1.39592-2.28937-1.31409-2.83331.575-4.77724,3.26555-3.36046,6.48665-6.76406,9.74131-10.13516a3.18038,3.18038,0,0,0,.91293-3.16011c-.61548-2.45767-1.2529-4.90982-1.871-7.36683a3.3277,3.3277,0,0,0-2.52632-2.54594c-4.68168-1.36907-9.34773-2.79234-14.01036-4.22548-1.78526-.54874-2.18886-1.17039-2.11479-3.0447q.24564-6.21672.51328-12.43257c.08386-1.92.46608-2.38986,2.298-2.92482.40521-.11832.81733-.21359,1.22774-.31342,4.43768-1.07945,8.87085-2.17809,13.31647-3.22382a3.3888,3.3888,0,0,0,2.59626-2.35082q1.17215-3.37394,2.31994-6.75631a2.61961,2.61961,0,0,0-.49689-2.699Q956.7286,751.15829,951.10914,744.59446Zm96.23369-1.31887a48.54134,48.54134,0,1,0,18.34791,66.06725A48.41261,48.41261,0,0,0,1047.34283,743.27559Z" transform="translate(-819.24176 -461)"/><path class="cls-2" d="M1103.04675,792.12752l-.10479-2.37253c.0323-.23842.07751-.47592.09483-.71543.1268-1.75292.22345-3.50842.37816-5.25883.14242-1.61138.36222-1.8158,1.94871-2.1713,2.50924-.56226,5.01087-1.16025,7.52725-1.68819a2.41568,2.41568,0,0,0,2.06448-1.85087,14.20968,14.20968,0,0,1,.83344-2.29028,2.22906,2.22906,0,0,0-.434-2.65269c-1.7468-2.03386-3.44727-4.10774-5.15193-6.17742a1.37887,1.37887,0,0,1-.06685-2.0726c1.53743-2.11563,3.09281-4.21822,4.63983-6.32689a1.489,1.489,0,0,1,1.74746-.57694c.29581.08316.586.1881.8751.29309,2.417.87765,4.83816,1.74428,7.2471,2.6436a2.24319,2.24319,0,0,0,2.503-.41733,12.28993,12.28993,0,0,1,1.52323-1.15333,2.35279,2.35279,0,0,0,1.02348-2.619c-.37536-2.58556-.66988-5.18386-.94511-7.78251-.12941-1.22186.07851-1.50391,1.20581-1.94894q3.5568-1.40415,7.12788-2.77211c1.13265-.43526,1.562-.29968,2.319.69122,1.66768,2.183,3.34674,4.35757,4.98642,6.56143a2.18958,2.18958,0,0,0,2.2219.95657,12.47219,12.47219,0,0,1,1.8324-.19289,1.74288,1.74288,0,0,0,1.75724-1.20237q1.45608-3.17529,3.01417-6.30335c.39641-.79568.92113-1.52744,1.38737-2.28833l.92265-.04075c.25561.0633.50907.13759.76717.18821,2.47995.48634,4.96273.95856,7.44021,1.45717.98371.198,1.34954.60166,1.42945,1.53864.21083,2.472.53527,4.94423.55989,7.41889a3.43271,3.43271,0,0,0,2.267,3.48412,3.04149,3.04149,0,0,0,3.35069-.20495c2.09336-1.37343,4.24729-2.65555,6.39153-3.95,1.237-.74678,1.49793-.70736,2.53934.26263,1.86475,1.73687,3.71625,3.488,5.5792,5.22677,1.01441.94682,1.07062,1.26066.40388,2.508-1.29482,2.42243-2.58013,4.85-3.88784,7.26544a1.78706,1.78706,0,0,0,.00384,1.93067c.33349.5428.69314,1.07437.97213,1.6447a2.123,2.123,0,0,0,2.141,1.21266c2.85407.02316,5.70781.09524,8.56135.16273a1.35928,1.35928,0,0,1,1.43342,1.12045c.17187.59066.31473,1.1897.4766,1.78334q.85809,3.147,1.72041,6.29289l.04075.92265a9.48234,9.48234,0,0,1-1.34011,1.13286c-2.32463,1.33557-4.67276,2.63055-7.0231,3.92071a1.71328,1.71328,0,0,0-.981,1.58729c-.01146.81224.01225,1.6288-.06487,2.4353a2.0138,2.0138,0,0,0,1.01814,2.0423c2.32854,1.53827,4.63628,3.10809,6.9468,4.67348,1.02771.69629,1.16193,1.03766.79866,2.21558-.75767,2.45674-1.53657,4.907-2.31658,7.35677a1.314,1.314,0,0,1-1.43222,1.10718,9.47356,9.47356,0,0,1-1.053-.01967q-3.78233-.23988-7.564-.49082a1.90449,1.90449,0,0,0-1.85414.89774,24.98993,24.98993,0,0,1-1.44305,2.12619,2.62551,2.62551,0,0,0-.24783,3.05825c1.09791,2.397,2.11593,4.83066,3.15707,7.25344a1.566,1.566,0,0,1-.54627,2.2435q-2.79128,2.31447-5.58265,4.62882a1.48066,1.48066,0,0,1-2.23317.08954c-2.1658-1.57988-4.34063-3.14862-6.47-4.77661a2.19312,2.19312,0,0,0-2.39524-.30909c-1.03016.44135-2.04573.91922-3.08858,1.32773a2.2036,2.2036,0,0,0-1.47031,1.91554c-.40391,2.67242-.86013,5.337-1.30575,8.003-.212,1.26835-.44647,1.51144-1.69977,1.72635-1.4271.24473-2.85918.46037-4.28909.68865l-3.6906.163a7.93378,7.93378,0,0,1-.88378-1.35261c-1.00037-2.51081-1.95469-5.04-2.91662-7.56606a2.01768,2.01768,0,0,0-1.71262-1.43351c-1.26142-.17839-2.5193-.39855-3.76528-.66382a2.17452,2.17452,0,0,0-2.28527.77267c-1.75164,1.99949-3.53338,3.97271-5.31217,5.94826-.92647,1.029-1.33215,1.08176-2.58276.4404q-2.84493-1.459-5.70021-2.89774c-1.37091-.68887-1.49587-.97774-1.16729-2.49351.568-2.62029,1.10136-5.24807,1.66085-7.87024a1.81979,1.81979,0,0,0-.51357-1.8107c-1.043-1.00687-2.09489-2.00444-3.13893-3.0102a1.90405,1.90405,0,0,0-1.99742-.47118c-2.68755.7528-5.38393,1.47456-8.08163,2.19049-1.03292.27412-1.4171.0945-1.94864-.83793q-1.763-3.0927-3.5151-6.19162a1.42248,1.42248,0,0,1,.23014-2.11583c.16091-.18014.33216-.35118.50119-.52391,1.82773-1.86772,3.64746-3.7434,5.48926-5.59715a1.939,1.939,0,0,0,.54874-1.92746q-.45246-1.993-.91929-3.98272a1.499,1.499,0,0,0-1.05846-1.16Q1107.76248,793.61291,1103.04675,792.12752Zm46.32366-29.7778a27.77482,27.77482,0,1,0,28.91192,26.52135A27.70116,27.70116,0,0,0,1149.37041,762.34972Z" transform="translate(-819.24176 -461)"/></svg>